<svg width="377" height="209" fill="none" xmlns="http://www.w3.org/2000/svg"><path opacity=".5" d="M165.614 59.172c51.63-25.921 100.943-44.26 138.926-52.96C323.536 1.86 339.67-.073 351.833.647c12.205.723 20.219 4.103 23.279 10.164 3.06 6.06 1.01 14.492-5.676 24.699-6.664 10.171-17.83 21.944-32.649 34.57-29.63 25.246-73.771 53.827-125.401 79.748-51.63 25.921-100.943 44.26-138.926 52.96-18.996 4.351-35.13 6.285-47.293 5.565-12.205-.723-20.219-4.103-23.279-10.164-3.06-6.06-1.01-14.492 5.676-24.698 6.664-10.172 17.83-21.945 32.648-34.571 29.63-25.246 73.772-53.827 125.402-79.748z" stroke="#B28E69"/></svg>