<svg width="238" height="21" fill="none" xmlns="http://www.w3.org/2000/svg"><g clip-path="url(#clip0)" fill="#B28E69"><path d="M41.399-.377c-6.68 0-11.713 4.693-11.713 10.922 0 6.228 5.05 10.921 11.713 10.921 6.662 0 11.669-4.693 11.669-10.921 0-6.229-5.001-10.922-11.67-10.922zm0 20.908c-4.56 0-7.866-4.193-7.866-9.97 0-5.777 3.323-9.98 7.866-9.98 4.543 0 7.816 4.192 7.816 9.964 0 5.771-3.268 9.97-7.816 9.97v.016zM72.918-.377c-6.68 0-11.714 4.693-11.714 10.922 0 6.228 5.035 10.921 11.714 10.921 6.678 0 11.668-4.693 11.668-10.921 0-6.229-5.017-10.922-11.668-10.922zm0 20.908c-4.56 0-7.866-4.193-7.866-9.97 0-5.777 3.312-9.964 7.865-9.964 4.554 0 7.817 4.192 7.817 9.964s-3.29 9.953-7.816 9.953v.017zM101.88-.08h-7.888v21.31h8.915c6.552 0 11.133-4.309 11.133-10.482 0-6.3-5.117-10.828-12.16-10.828zm1.027 20.22h-5.206V.976h4.168c4.968 0 8.307 3.934 8.307 9.788.011 5.508-2.98 9.349-7.269 9.349v.027zm24.304-9.27h11.431V9.78h-11.431V.976h12.458V-.107h-16.173v21.31h16.482v-1.09h-12.767v-9.244zm30.74-1.552c-4.129-1.733-6.624-2.751-6.624-5.293 0-2.157 1.711-3.445 4.571-3.445 3.052 0 4.967 1.844 5.061 4.831h3.71c-.138-3.895-2.954-5.788-8.589-5.788-5.482 0-8.379 1.893-8.379 5.47 0 3.46 2.804 4.714 6.684 6.459h.055c5.101 2.25 7.011 3.097 7.011 5.397 0 2.2-1.855 3.582-4.841 3.582-3.539 0-5.769-2.052-5.857-5.37H147c.276 4.165 3.46 6.278 9.477 6.278 5.763 0 8.688-1.838 8.688-5.47 0-3.058-2.125-4.467-7.214-6.651zm20.341-9.425h-3.715v21.31h3.715V-.108zm58.571 0v16.165L220.331-.107h-1.264v21.31h1.137V5.031l16.537 16.17H238V-.108h-1.137zM19.06 11.7h-7.396v.919h7.727c-.69 4.688-3.742 7.895-7.661 7.895-4.554 0-7.866-4.192-7.866-9.97 0-5.777 3.312-9.964 7.85-9.964 3.537 0 6.446 2.636 7.445 6.73h3.737C21.472 2.632 17.112-.395 11.713-.395 5.034-.377 0 4.322 0 10.544c0 6.223 5.034 10.922 11.713 10.922 6.072 0 10.913-4.005 11.592-9.557l.033-.209H19.06zm187.019 0h-7.397v.919h7.728c-.685 4.688-3.743 7.895-7.662 7.895-4.554 0-7.865-4.192-7.865-9.97 0-5.777 3.311-9.964 7.865-9.964 3.539 0 6.448 2.636 7.447 6.73h3.737c-1.425-4.677-5.785-7.704-11.184-7.704-6.679 0-11.713 4.7-11.713 10.922 0 6.223 5.034 10.922 11.713 10.922 6.072 0 10.913-4.006 11.592-9.557l.033-.21-4.294.017z"/></g><defs><clipPath id="clip0"><path fill="#fff" d="M0 0h238v21H0z"/></clipPath></defs></svg>