<svg width="69" height="70" fill="none" xmlns="http://www.w3.org/2000/svg"><path fill-rule="evenodd" clip-rule="evenodd" d="M64.687 34.999c0-.58-.227-1.137-.631-1.547a2.14 2.14 0 00-1.525-.64H11.674l13.571-13.764a2.192 2.192 0 00.632-1.55 2.217 2.217 0 00-.632-1.548 2.158 2.158 0 00-1.527-.641 2.131 2.131 0 00-1.526.641l-17.25 17.5A2.19 2.19 0 004.308 35a2.214 2.214 0 00.634 1.549l17.25 17.5a2.157 2.157 0 001.526.641 2.132 2.132 0 001.527-.641 2.192 2.192 0 00.632-1.55 2.217 2.217 0 00-.632-1.548L11.674 37.186H62.53c.572 0 1.12-.23 1.525-.64.404-.41.631-.967.631-1.547z" fill="#fff"/></svg>