<svg width="69" height="70" fill="none" xmlns="http://www.w3.org/2000/svg"><path fill-rule="evenodd" clip-rule="evenodd" d="M4.313 35.001c0 .58.227 1.137.631 1.547.405.41.953.64 1.525.64h50.857L43.755 50.953a2.192 2.192 0 00-.632 1.55 2.217 2.217 0 00.632 1.548 2.158 2.158 0 001.526.641 2.131 2.131 0 001.527-.641l17.25-17.5A2.19 2.19 0 0064.692 35a2.215 2.215 0 00-.634-1.549l-17.25-17.5a2.158 2.158 0 00-1.526-.641 2.132 2.132 0 00-1.527.641 2.192 2.192 0 00-.632 1.55 2.217 2.217 0 00.632 1.548l13.571 13.764H6.47c-.572 0-1.12.23-1.525.64-.404.41-.631.967-.631 1.547z" fill="#fff"/></svg>